<?xml version="1.0" encoding="utf-8"?>
<!-- Generator: Adobe Illustrator 26.3.1, SVG Export Plug-In . SVG Version: 6.00 Build 0)  -->
<svg version="1.1" id="Layer_1" xmlns="http://www.w3.org/2000/svg" xmlns:xlink="http://www.w3.org/1999/xlink" x="0px" y="0px"
	 viewBox="0 0 1673 318" style="enable-background:new 0 0 1673 318;" xml:space="preserve">
<style type="text/css">
	.st0{fill:#15162D;}
</style>
<g>
	<g>
		<rect x="748.9" y="142.8" class="st0" width="32" height="112"/>
		<path class="st0" d="M362,129.4c-9.6,0-17.1,2.1-22.2,4.3V65.2H309v189.6h30.8v-75.2c0,0,2-19.6,22.5-19.6
			c20.5,0,21.8,19.6,21.8,19.6v75.2h30.8v-75.2C414.9,162.7,399.8,129.4,362,129.4z"/>
		<path class="st0" d="M1168.2,257.7c-35.5,0-49.6-31.3-49.6-47.2V140h30.9v70.6c0,0-0.8,15.4,18.5,15.4c19.3,0,19.1-15.4,19.1-15.4
			V140h30.9c0,0,0,81,0,107.8c0,28.3-36,88.1-99.4,59v-37.3c0,0,10,13.5,30,13.5s34.3-15.4,36.6-29.5
			C1185.3,253.5,1180.3,257.7,1168.2,257.7z"/>
		<circle class="st0" cx="765" cy="110.9" r="21.6"/>
		<path class="st0" d="M514.3,218.7C508.1,225,499.5,229,490,229c-7.4,0-14.2-2.4-19.8-6.4l53.5-30.5l0,0l17.9-10.2l10.3-5.9l0,0
			c-8.1-26.5-32.8-45.7-61.9-45.7c-35.8,0-64.8,29-64.8,64.8c0,35.8,29,64.8,64.8,64.8c18.8,0,35.7-8,47.5-20.7L514.3,218.7
			L514.3,218.7z M490,161.2c7.6,0,14.6,2.5,20.3,6.7l-54,30.8c-0.1-1.2-0.2-2.4-0.2-3.6C456.1,176.4,471.3,161.2,490,161.2z"/>
		<path class="st0" d="M880.8,218.7c-6.2,6.3-14.8,10.3-24.3,10.3c-7.4,0-14.2-2.4-19.8-6.4l53.5-30.5l0,0l17.9-10.2l10.3-5.9l0,0
			c-8.1-26.5-32.8-45.7-61.9-45.7c-35.8,0-64.8,29-64.8,64.8c0,35.8,29,64.8,64.8,64.8c18.8,0,35.7-8,47.5-20.7L880.8,218.7
			L880.8,218.7z M856.6,161.2c7.6,0,14.6,2.5,20.3,6.7l-54,30.8c-0.1-1.2-0.2-2.4-0.2-3.6C822.7,176.4,837.8,161.2,856.6,161.2z"/>
		<path class="st0" d="M1476.7,218.7c-6.2,6.3-14.8,10.3-24.3,10.3c-7.4,0-14.2-2.4-19.8-6.4l53.5-30.5l0,0l17.9-10.2l10.3-5.9l0,0
			c-8.1-26.5-32.8-45.7-61.9-45.7c-35.8,0-64.8,29-64.8,64.8c0,35.8,29,64.8,64.8,64.8c18.8,0,35.7-8,47.5-20.7L1476.7,218.7
			L1476.7,218.7z M1452.4,161.2c7.6,0,14.6,2.5,20.3,6.7l-54,30.8c-0.1-1.2-0.2-2.4-0.2-3.6C1418.5,176.4,1433.7,161.2,1452.4,161.2
			z"/>
		<path class="st0" d="M555.5,228.4l24.2-11.4c0,0,6.2,12.3,20.1,12.3c5,0,12.4-2.4,12.4-10c0-15.8-51.2-8-51.2-49.9
			c0-25.2,17.5-39.2,40.5-39.2c23,0,34.4,14.6,38.8,21.7l-26.4,14c0,0-5.6-6.1-13.3-6.1c-5.2,0-9.4,3.5-9.4,8.9
			c0,20.1,50.8,6.6,50.8,51.8c0,18.9-12.8,39.3-41.4,39.3C572,259.9,561.2,242,555.5,228.4z"/>
		<path class="st0" d="M652.2,228.4l24.2-11.4c0,0,6.2,12.3,20.1,12.3c5,0,12.4-2.4,12.4-10c0-15.8-51.2-8-51.2-49.9
			c0-25.2,17.5-39.2,40.5-39.2c23,0,34.4,14.6,38.8,21.7l-26.4,14c0,0-5.6-6.1-13.3-6.1c-5.2,0-9.4,3.5-9.4,8.9
			c0,20.1,50.8,6.6,50.8,51.8c0,18.9-12.8,39.3-41.4,39.3C668.7,259.9,658,242,652.2,228.4z"/>
		<path class="st0" d="M1226.6,228.4l24.2-11.4c0,0,6.2,12.3,20.1,12.3c5,0,12.4-2.4,12.4-10c0-15.8-51.2-8-51.2-49.9
			c0-25.2,17.5-39.2,40.5-39.2c23,0,34.4,14.6,38.8,21.7l-26.4,14c0,0-5.6-6.1-13.3-6.1c-5.2,0-9.4,3.5-9.4,8.9
			c0,20.1,50.8,6.6,50.8,51.8c0,18.9-12.8,39.3-41.4,39.3C1243.1,259.9,1232.4,242,1226.6,228.4z"/>
		<path class="st0" d="M1001.4,221.8l30.4-14.2c0,0,7.8,15.4,25.2,15.4c6.3,0,15.6-3,15.6-12.4c0-19.7-64.4-10-64.4-62.2
			c0-31.4,22-48.9,50.9-48.9s43.2,18.2,48.8,27.1l-33.1,17.4c0,0-7.1-7.6-16.7-7.6c-6.5,0-11.8,4.4-11.8,11.1
			c0,25.1,63.8,8.2,63.8,64.6c0,23.6-16.1,49-52,49S1008.7,238.8,1001.4,221.8z"/>
		<path class="st0" d="M295.6,240.3l-62.6-34.2l-8,27.3c-1.9,6.6-7.1,11.8-13.7,13.7c-6.7,1.9-14.8,4.3-19,5.6
			c-8,2.4-22.6,12.1-27.4,15.5c-4.8,3.4-39.1,21.4-52.6,15s-12.8-20.3,0-32c12.8-11.7,44.9-30.5,63.1-38.8c0,0-24.4-10.9-40.3-20.6
			s-30.6-33.4-67.7-47c-37-13.5-46.2-16-44-19.7c2.2-3.7,9.5,11.9,47.2,9.5c0,0,16.4-63.1,96.9-68.4c0,0,11.4-29.2,20.7-35
			c0,0,8.8,2.3,10.7,14.8c1.7,10.9,1.9,15.6,5.7,20.5c1.2,1.6,2,3.4,2.1,5.4c0.2,2.9,0.5,7.4,0.5,12.3c0,8.4,15.8,14,23.6,30.5
			l64.6-34.5c0,0-39-80.3-136.2-80.3S0,80.7,0,159s62,159,160.7,159C253.7,318,295.6,240.3,295.6,240.3z"/>
		<path class="st0" d="M1360.6,195.1v-35.3h22.1V129h-22.1v-28.8h-32V129h-12.9v30.8h12.9v35.3c0,33.2,25.6,57.2,55.5,63.1V225
			C1384.1,225,1360.6,220,1360.6,195.1z"/>
		<path class="st0" d="M1627.1,128.9c-9.5,0-21.2,4.3-30.4,12c-8.1-7.2-18.6-12-30-12c-29.6,0-46.9,25.2-46.9,44.3v81.7h32v-81.7
			c0-4.3,3.7-13.1,14.4-13.1c13.5,0,14.4,13.1,14.4,13.1v81.7h32v-81.7c0,0,1.4-13.4,14.2-13.4s14.2,13.4,14.2,13.4v81.7h32v-75.2
			c0-8.9-1.9-17.8-5.8-25.8C1661.3,141.8,1649.7,128.9,1627.1,128.9z"/>
	</g>
</g>
</svg>
